<svg width="1600" height="1000" viewBox="0 0 1600 1000" fill="none" xmlns="http://www.w3.org/2000/svg">
  <rect width="1600" height="1000" fill="#F3E6D9"/>
  <rect x="56" y="56" width="1488" height="888" rx="40" fill="#FFF7F0" stroke="#D7B99A" stroke-width="4"/>
  <rect x="112" y="112" width="820" height="776" rx="30" fill="#E6D3C0"/>
  <rect x="164" y="164" width="716" height="450" rx="28" fill="#D7A56B"/>
  <path d="M164 486C302 390 424 360 540 374C646 388 744 446 880 520V614H164V486Z" fill="#B57943"/>
  <path d="M164 552C280 504 388 496 488 518C582 538 714 598 880 604V614H164V552Z" fill="#875637"/>
  <circle cx="302" cy="278" r="58" fill="#FFF1CF"/>
  <rect x="218" y="664" width="230" height="174" rx="32" fill="#874E39"/>
  <rect x="490" y="664" width="338" height="174" rx="32" fill="#F1DFC6"/>
  <rect x="536" y="714" width="202" height="24" rx="12" fill="#875637"/>
  <rect x="536" y="762" width="136" height="24" rx="12" fill="#D7A56B"/>
  <rect x="980" y="112" width="504" height="268" rx="30" fill="#533D35"/>
  <rect x="1032" y="164" width="188" height="18" rx="9" fill="#E9DCC7"/>
  <rect x="1032" y="210" width="292" height="18" rx="9" fill="#E9DCC7" fill-opacity="0.85"/>
  <rect x="1032" y="256" width="228" height="18" rx="9" fill="#E9DCC7" fill-opacity="0.7"/>
  <rect x="1032" y="320" width="160" height="18" rx="9" fill="#F0C37B"/>
  <rect x="980" y="426" width="504" height="196" rx="30" fill="#F6ECDC"/>
  <path d="M1068 552L1140 478H1206L1132 552H1068Z" fill="#D7A56B"/>
  <path d="M1232 552L1306 496H1388L1312 552H1232Z" fill="#875637"/>
  <rect x="980" y="666" width="504" height="180" rx="30" fill="#5C463C"/>
  <text x="1032" y="748" fill="#FFF7F0" font-family="Georgia, serif" font-size="48" font-weight="700">Atlas Salt House</text>
  <text x="1032" y="790" fill="#EBDDC9" font-family="Arial, sans-serif" font-size="24">Desert stay demo image</text>
</svg>
