<svg width="1600" height="1000" viewBox="0 0 1600 1000" fill="none" xmlns="http://www.w3.org/2000/svg">
  <rect width="1600" height="1000" fill="#F8F1E4"/>
  <rect x="58" y="58" width="1484" height="884" rx="40" fill="#FFF9EF" stroke="#D7C4A1" stroke-width="4"/>
  <rect x="114" y="114" width="822" height="772" rx="28" fill="#E8DECE"/>
  <rect x="166" y="166" width="718" height="402" rx="26" fill="#EFD7A2"/>
  <rect x="196" y="198" width="658" height="338" rx="22" fill="#D6C0A1"/>
  <rect x="470" y="250" width="110" height="232" rx="18" fill="#F6F0E4"/>
  <rect x="614" y="250" width="110" height="232" rx="18" fill="#F6F0E4"/>
  <circle cx="340" cy="368" r="78" fill="#97A673"/>
  <circle cx="756" cy="368" r="66" fill="#78915A"/>
  <rect x="196" y="614" width="304" height="220" rx="34" fill="#C98A58"/>
  <rect x="534" y="614" width="320" height="220" rx="34" fill="#F6EFE3"/>
  <rect x="576" y="660" width="196" height="24" rx="12" fill="#7B8F60"/>
  <rect x="576" y="708" width="144" height="24" rx="12" fill="#C98A58"/>
  <rect x="980" y="114" width="504" height="236" rx="30" fill="#375448"/>
  <rect x="1032" y="166" width="180" height="16" rx="8" fill="#D8E6DB"/>
  <rect x="1032" y="208" width="286" height="16" rx="8" fill="#D8E6DB" fill-opacity="0.84"/>
  <rect x="1032" y="252" width="218" height="16" rx="8" fill="#D8E6DB" fill-opacity="0.7"/>
  <rect x="1032" y="300" width="150" height="18" rx="9" fill="#F0CA7A"/>
  <rect x="980" y="392" width="504" height="236" rx="30" fill="#F4E8D7"/>
  <path d="M1060 564L1136 462H1220L1144 564H1060Z" fill="#7B8F60"/>
  <path d="M1244 564L1318 488H1398L1324 564H1244Z" fill="#D89A63"/>
  <rect x="980" y="670" width="504" height="176" rx="30" fill="#6B7455"/>
  <text x="1032" y="752" fill="#FFF9EF" font-family="Georgia, serif" font-size="46" font-weight="700">Olive Courtyard House</text>
  <text x="1032" y="792" fill="#E6E8DA" font-family="Arial, sans-serif" font-size="24">Mediterranean stay demo image</text>
</svg>
