<svg width="1600" height="1000" viewBox="0 0 1600 1000" fill="none" xmlns="http://www.w3.org/2000/svg">
  <rect width="1600" height="1000" fill="#F6F1E8"/>
  <rect x="58" y="58" width="1484" height="884" rx="40" fill="#FDF9F2" stroke="#D8C7AF" stroke-width="4"/>
  <rect x="118" y="118" width="820" height="764" rx="28" fill="#E6E0D5"/>
  <rect x="170" y="176" width="716" height="556" rx="24" fill="#C4D3D7"/>
  <path d="M170 528C252 476 306 458 394 458C498 458 574 542 680 542C758 542 822 494 886 444V732H170V528Z" fill="#8BA0A2"/>
  <path d="M170 598C264 548 352 536 420 548C490 562 564 624 660 624C744 624 810 594 886 538V732H170V598Z" fill="#667A7C"/>
  <circle cx="286" cy="308" r="76" fill="#F6D9A7"/>
  <rect x="250" y="744" width="508" height="94" rx="24" fill="#A8694D"/>
  <rect x="206" y="668" width="212" height="140" rx="32" fill="#6D886A"/>
  <rect x="470" y="660" width="240" height="148" rx="34" fill="#D6BA92"/>
  <rect x="766" y="668" width="76" height="126" rx="18" fill="#E9DFC8"/>
  <rect x="1012" y="140" width="468" height="248" rx="28" fill="#1F4B52"/>
  <rect x="1052" y="180" width="202" height="18" rx="9" fill="#BFD8DB" fill-opacity="0.9"/>
  <rect x="1052" y="224" width="296" height="18" rx="9" fill="#BFD8DB" fill-opacity="0.82"/>
  <rect x="1052" y="270" width="238" height="18" rx="9" fill="#BFD8DB" fill-opacity="0.7"/>
  <rect x="1052" y="322" width="144" height="18" rx="9" fill="#E8C99C"/>
  <rect x="1012" y="426" width="468" height="182" rx="28" fill="#EFE3D0"/>
  <rect x="1060" y="470" width="182" height="96" rx="20" fill="#B87B5C"/>
  <rect x="1260" y="470" width="172" height="96" rx="20" fill="#D6BA92"/>
  <rect x="1012" y="648" width="468" height="194" rx="28" fill="#234046"/>
  <path d="M1060 792L1136 698H1214L1142 792H1060Z" fill="#F3E2BE"/>
  <path d="M1226 792L1302 706H1378L1304 792H1226Z" fill="#D8A06A"/>
  <text x="1052" y="738" fill="#FDF9F2" font-family="Georgia, serif" font-size="48" font-weight="700">Tide House</text>
  <text x="1052" y="780" fill="#D4E1E3" font-family="Arial, sans-serif" font-size="24">Coastal stay demo image</text>
</svg>
