<svg width="1600" height="1000" viewBox="0 0 1600 1000" fill="none" xmlns="http://www.w3.org/2000/svg">
  <rect width="1600" height="1000" fill="#F2E2D1"/>
  <rect x="56" y="56" width="1488" height="888" rx="40" fill="#FFF6EE" stroke="#D9B897" stroke-width="4"/>
  <rect x="114" y="114" width="664" height="772" rx="30" fill="#E8D2BF"/>
  <path d="M178 714C260 672 314 626 370 564C420 512 468 438 540 386C596 344 646 324 704 308" stroke="#8F603E" stroke-width="24" stroke-linecap="round"/>
  <circle cx="212" cy="698" r="28" fill="#F1C77E"/>
  <circle cx="362" cy="572" r="24" fill="#8F603E"/>
  <circle cx="532" cy="392" r="22" fill="#C98859"/>
  <rect x="224" y="214" width="252" height="170" rx="26" fill="#D6A36E"/>
  <path d="M248 346C304 312 344 298 388 304C426 308 454 326 476 350V384H224V356L248 346Z" fill="#9C6A44"/>
  <circle cx="302" cy="254" r="30" fill="#FFF0CB"/>
  <rect x="822" y="114" width="662" height="248" rx="30" fill="#503D33"/>
  <text x="874" y="194" fill="#EADBC9" font-family="Arial, sans-serif" font-size="18" letter-spacing="2">TRAVEL DEMO / ROUTE</text>
  <text x="874" y="272" fill="#FFF6EE" font-family="Georgia, serif" font-size="52" font-weight="700">Atlas Supper Trail</text>
  <text x="874" y="324" fill="#E8DACA" font-family="Arial, sans-serif" font-size="24">Desert transfers, market sourcing, and long-table dinners</text>
  <rect x="822" y="404" width="662" height="190" rx="30" fill="#F6E9D9"/>
  <rect x="874" y="450" width="182" height="92" rx="18" fill="#8F603E"/>
  <rect x="1078" y="450" width="166" height="92" rx="18" fill="#C98859"/>
  <rect x="1264" y="450" width="168" height="92" rx="18" fill="#F1C77E"/>
  <rect x="822" y="636" width="662" height="210" rx="30" fill="#E8D2BF"/>
  <text x="874" y="712" fill="#503D33" font-family="Arial, sans-serif" font-size="28">4 days  /  linked to Atlas Salt House  /  supper and sunrise route</text>
  <text x="874" y="770" fill="#7A6454" font-family="Arial, sans-serif" font-size="22">Fictional desert route asset for the travel demo</text>
</svg>
